# xmcd CD database file
#
# Track frame offsets:
#	150
#	24642
#	73090
#	88365
#	104472
#	132867
#	147990
#	159640
#	181697
#	192037
#	216202
#
# Disc length: 3081 seconds
#
# Revision: 1
# Processed by: cddbd v1.5.1PL0 Copyright (c) Steve Scherf et al.
# Submitted via: CDex 1.51
#
DISCID=9f0c070b
DTITLE=Fattigfolket - Fattikgfolket
DYEAR=2002
DGENRE=Jazz
TTITLE0=bulle i bussen
TTITLE1=kjempefugl
TTITLE2=skjult drage
TTITLE3=da mask
TTITLE4=titicaca
TTITLE5=putte som fisk
TTITLE6=putte i blåbærskogen
TTITLE7=det er godt å ikke gjøre noe, og hvile etterpå
TTITLE8=bare päls
TTITLE9=putte i päls
TTITLE10=nero nero
EXTD=YEAR: 2002
EXTT0=
EXTT1=
EXTT2=
EXTT3=
EXTT4=
EXTT5=
EXTT6=
EXTT7=
EXTT8=
EXTT9=
EXTT10=
PLAYORDER=
